<?xml version="1.0" encoding="iso-8859-1"?>
<!-- Generator: Adobe Illustrator 21.0.0, SVG Export Plug-In . SVG Version: 6.00 Build 0)  -->
<svg xmlns="http://www.w3.org/2000/svg" xmlns:xlink="http://www.w3.org/1999/xlink" version="1.1" id="Capa_1" x="0px" y="0px" viewBox="0 0 512.414 512.414" style="enable-background:new 0 0 512.414 512.414;" xml:space="preserve" width="512" height="512">
<g>
	<rect x="210.521" y="280.467" style="fill:#FE5957;" width="30" height="62.168"/>
	<rect x="260.472" y="273.022" style="fill:#FE5957;" width="30" height="69.612"/>
	<polygon style="fill:#FE5957;" points="392.777,121.831 378.475,54.478 452.642,75.336  "/>
	<path style="fill:#22B8F9;" d="M398.075,104.887c-1.861-29.393-13.302-56.025-32.215-74.994C346.64,10.616,320.505,0,292.271,0   c-58.24,0-105.643,47.285-105.834,105.481c-0.081,1.35-0.478,6.672-0.869,11.753c-7.72,29.052-30.611,65.194-95.417,75.268   l-22.658,3.522l12.304,19.349c31.893,50.152,86.369,80.094,145.725,80.094c51.064,0,96.647-18.602,128.353-52.377   C386.325,208.52,401.61,160.729,398.075,104.887z"/>
	<path style="fill:#0082FF;" d="M240.634,94.984c-28.222,0-52.056,18.396-63.889,44.009c-6.479,14.023-23.107,29.141-45.49,41.611   c-14.715,8.197-63.763,15.42-63.763,15.42c11.563,15.447,50.781,49.166,83.209,56.214c15.149,3.293,30.469,4.929,45.161,4.929   c17.979,0,35.014-2.45,49.625-7.313c40.464-13.468,62.75-44.459,62.75-87.266C308.238,125.312,277.911,94.984,240.634,94.984z"/>
	<rect x="0.207" y="329.944" style="fill:#FFDA2D;" width="512" height="182.47"/>
	<rect x="260.472" y="273.022" style="fill:#FC1D5A;" width="30" height="69.612"/>
	<polygon style="fill:#FC1D5A;" points="392.777,121.831 378.475,54.478 452.642,75.336  "/>
	<path style="fill:#0082FF;" d="M353.874,243.09c32.451-34.57,47.736-82.36,44.201-138.203   c-1.861-29.393-13.302-56.025-32.215-74.994C346.64,10.616,320.505,0,292.271,0c-12.658,0-24.803,2.236-36.063,6.33V293.13   C294.715,287.175,328.679,269.93,353.874,243.09z"/>
	<rect x="256.207" y="329.944" style="fill:#FDBF00;" width="256" height="182.47"/>
	<path style="fill:#00317E;" d="M308.238,162.588c0-31.916-22.239-58.719-52.031-65.773v148.87   C289.868,230.571,308.238,201.449,308.238,162.588z"/>
	<path style="fill:#444444;" d="M307.677,83.917c7.846,0,15.363-6.899,15-15c-0.364-8.127-6.591-15-15-15   c-7.846,0-15.363,6.899-15,15C293.041,77.044,299.268,83.917,307.677,83.917L307.677,83.917z"/>
	<path style="fill:#292929;" d="M307.677,83.917c7.846,0,15.363-6.899,15-15c-0.364-8.127-6.591-15-15-15   c-7.846,0-15.363,6.899-15,15C293.041,77.044,299.268,83.917,307.677,83.917L307.677,83.917z"/>
	<path style="fill:#0082FF;" d="M97.556,408.951H79.77v-15.878h56.048v15.878h-17.786v44.855H97.556V408.951z"/>
	<path style="fill:#0082FF;" d="M242.537,393.073l-19.435,60.733h-21.95l-9.804-32.449l-10.325,32.449h-21.95l-19.435-60.733h21.083   l10.585,34.531l11.192-34.531h18.827l10.585,34.965l11.191-34.965H242.537z"/>
	<path style="fill:#0082FF;" d="M301.888,438.363v15.443h-50.495v-60.733h49.367v15.444h-29.238v7.114h25.681v14.749h-25.681v7.982   H301.888z"/>
	<path style="fill:#0082FF;" d="M364.618,438.363v15.443h-50.495v-60.733h49.367v15.444h-29.238v7.114h25.682v14.749h-25.682v7.982   H364.618z"/>
	<path style="fill:#0082FF;" d="M390.042,408.951h-17.786v-15.878h56.048v15.878h-17.786v44.855h-20.476V408.951z"/>
	<path style="fill:#0082FF;" d="M97.556,408.951H79.77v-15.878h56.048v15.878h-17.786v44.855H97.556V408.951z"/>
	<path style="fill:#0082FF;" d="M242.537,393.073l-19.435,60.733h-21.95l-9.804-32.449l-10.325,32.449h-21.95l-19.435-60.733h21.083   l10.585,34.531l11.192-34.531h18.827l10.585,34.965l11.191-34.965H242.537z"/>
	<path style="fill:#00317E;" d="M364.618,438.363v15.443h-50.495v-60.733h49.367v15.444h-29.238v7.114h25.682v14.749h-25.682v7.982   H364.618z"/>
	<path style="fill:#00317E;" d="M390.042,408.951h-17.786v-15.878h56.048v15.878h-17.786v44.855h-20.476V408.951z"/>
	<polygon style="fill:#00317E;" points="271.522,430.381 297.202,430.381 297.202,415.632 271.522,415.632 271.522,408.518    300.76,408.518 300.76,393.073 256.207,393.073 256.207,453.807 301.888,453.807 301.888,438.363 271.522,438.363  "/>
</g>















</svg>
